<svg width="100" height="18" viewBox="0 0 100 18" fill="none" xmlns="http://www.w3.org/2000/svg">
<path d="M96.459 5.16672C95.0114 5.16672 93.7865 3.96412 93.7865 2.51655C93.7865 1.2026 95.0114 0 96.459 0C97.862 0 99.02 1.2026 99.02 2.51655C99.02 3.96412 97.862 5.16672 96.459 5.16672ZM99.9999 17.5045C99.9999 17.5936 99.9554 17.6158 99.7772 17.6158H93.1184V16.4132C93.1184 16.1683 93.1852 16.0792 93.4079 15.9678C93.9647 15.7006 94.0983 15.4779 94.0983 15.0102V8.88586C94.0983 8.46273 94.0315 8.35138 93.4079 8.15094C93.2075 8.08413 93.1184 7.97278 93.1184 7.72781V6.56975L99.02 5.54531L98.9532 8.21775V15.7006L99.9999 16.2128V17.5045Z" fill="#CBC0D1"/>
<path d="M84.1604 17.5045C84.1604 17.5935 84.1159 17.6158 83.9377 17.6158H77.3457V16.4132C77.3457 16.1682 77.4125 16.0792 77.6352 15.9678C78.192 15.7006 78.3256 15.4556 78.3256 14.9879V8.90811C78.3256 8.48497 78.2365 8.35135 77.6352 8.17319C77.4348 8.10638 77.3457 7.99503 77.3457 7.72778V6.56972L83.2473 5.54529L83.2028 8.17319C84.4722 6.41383 85.8084 5.54529 87.5232 5.54529C89.7057 5.54529 90.9529 6.97059 90.9529 9.30897V15.7006L91.9996 16.1905V17.5045C91.9996 17.5935 91.955 17.6158 91.7769 17.6158H85.1626V16.4132C85.1626 16.1682 85.2294 16.0792 85.4521 15.9678C86.0089 15.7228 86.0979 15.4556 86.0979 14.9879V10.8679C86.0979 9.30898 85.5412 8.93038 84.6504 8.93038C84.1382 8.93038 83.6259 9.10854 83.1805 9.42033V15.7006L84.1604 16.1905V17.5045Z" fill="#CBC0D1"/>
<path d="M68.3876 17.5045C68.3876 17.5935 68.3431 17.6158 68.1649 17.6158H61.5729V16.4132C61.5729 16.1682 61.6397 16.0792 61.8624 15.9678C62.4192 15.7006 62.5528 15.4556 62.5528 14.9879V8.90811C62.5528 8.48497 62.4637 8.35135 61.8624 8.17319C61.662 8.10638 61.5729 7.99503 61.5729 7.72778V6.56972L67.4745 5.54529L67.43 8.17319C68.6994 6.41383 70.0356 5.54529 71.7504 5.54529C73.9329 5.54529 75.18 6.97059 75.18 9.30897V15.7006L76.2268 16.1905V17.5045C76.2268 17.5935 76.1822 17.6158 76.0041 17.6158H69.3898V16.4132C69.3898 16.1682 69.4566 16.0792 69.6793 15.9678C70.236 15.7228 70.3251 15.4556 70.3251 14.9879V10.8679C70.3251 9.30898 69.7684 8.93038 68.8775 8.93038C68.3653 8.93038 67.8531 9.10854 67.4077 9.42033V15.7006L68.3876 16.1905V17.5045Z" fill="#CBC0D1"/>
<path d="M56.8613 5.16672C55.4137 5.16672 54.1889 3.96412 54.1889 2.51655C54.1889 1.2026 55.4137 0 56.8613 0C58.2643 0 59.4224 1.2026 59.4224 2.51655C59.4224 3.96412 58.2643 5.16672 56.8613 5.16672ZM60.4023 17.5045C60.4023 17.5936 60.3577 17.6158 60.1796 17.6158H53.5208V16.4132C53.5208 16.1683 53.5876 16.0792 53.8103 15.9678C54.367 15.7006 54.5006 15.4779 54.5006 15.0102V8.88586C54.5006 8.46273 54.4338 8.35138 53.8103 8.15094C53.6098 8.08413 53.5208 7.97278 53.5208 7.72781V6.56975L59.4224 5.54531L59.3556 8.21775V15.7006L60.4023 16.2128V17.5045Z" fill="#CBC0D1"/>
<path d="M44.5628 17.5045C44.5628 17.5935 44.5182 17.6158 44.3401 17.6158H37.748V16.4132C37.748 16.1682 37.8149 16.0792 38.0376 15.9678C38.5943 15.7006 38.7279 15.4556 38.7279 14.9879V8.90811C38.7279 8.48497 38.6389 8.35135 38.0376 8.17319C37.8371 8.10638 37.748 7.99503 37.748 7.72778V6.56972L43.6497 5.54529L43.6051 8.17319C44.8746 6.41383 46.2108 5.54529 47.9256 5.54529C50.1081 5.54529 51.3552 6.97059 51.3552 9.30897V15.7006L52.4019 16.1905V17.5045C52.4019 17.5935 52.3574 17.6158 52.1792 17.6158H45.5649V16.4132C45.5649 16.1682 45.6317 16.0792 45.8544 15.9678C46.4112 15.7228 46.5003 15.4556 46.5003 14.9879V10.8679C46.5003 9.30898 45.9435 8.93038 45.0527 8.93038C44.5405 8.93038 44.0283 9.10854 43.5829 9.42033V15.7006L44.5628 16.1905V17.5045Z" fill="#CBC0D1"/>
<path d="M33.3509 17.8831C31.9256 17.8831 30.968 17.4154 30.5226 15.9901C29.8099 17.3931 28.4737 17.9053 27.2266 17.9053C25.4004 17.9053 23.9751 16.6359 23.9751 14.5202C23.9751 11.7364 26.5585 10.9793 29.9881 10.9347H30.2776V9.42033C30.2776 7.68324 29.6986 7.30465 28.8968 7.30465C28.5851 7.30465 28.3178 7.32692 28.0283 7.39373C27.8724 8.15092 27.6497 8.93038 27.3602 9.55395C27.2266 9.84346 27.0707 9.888 26.7812 9.888H25.1554L24.7768 6.68108C26.1799 5.96843 28.4292 5.54529 30.1217 5.54529C33.9299 5.54529 35.1325 7.12648 35.1325 10.0662V14.498C35.1325 14.8766 35.3552 15.0993 35.667 15.0993C35.8675 15.0993 36.0233 15.0547 36.157 14.9434L36.7805 16.146C36.1347 17.2372 34.6426 17.8831 33.3509 17.8831ZM28.2287 13.8967C28.2287 14.6539 28.6964 15.2329 29.5872 15.2329C29.8099 15.2329 30.0549 15.1883 30.2776 15.077V12.5159H30.0994C28.7409 12.5382 28.2287 13.1172 28.2287 13.8967Z" fill="#CBC0D1"/>
<path d="M19.3081 5.16672C17.8605 5.16672 16.6356 3.96412 16.6356 2.51655C16.6356 1.2026 17.8605 0 19.3081 0C20.7111 0 21.8692 1.2026 21.8692 2.51655C21.8692 3.96412 20.7111 5.16672 19.3081 5.16672ZM22.8491 17.5045C22.8491 17.5936 22.8045 17.6158 22.6264 17.6158H15.9675V16.4132C15.9675 16.1683 16.0343 16.0792 16.257 15.9678C16.8138 15.7006 16.9474 15.4779 16.9474 15.0102V8.88586C16.9474 8.46273 16.8806 8.35138 16.257 8.15094C16.0566 8.08413 15.9675 7.97278 15.9675 7.72781V6.56975L21.8692 5.54531L21.8024 8.21775V15.7006L22.8491 16.2128V17.5045Z" fill="#CBC0D1"/>
<path d="M8.75224 17.4377C8.75224 17.5713 8.68543 17.6158 8.44045 17.6158H0V16.5246C0 16.3019 0.0890813 16.0792 0.356325 15.9901C1.22487 15.7006 1.49211 15.5447 1.49211 14.9656V4.74356C1.49211 4.16453 1.22487 4.00864 0.356325 3.71913C0.0890813 3.63005 0 3.40734 0 3.18464V2.02658H2.44974C3.80823 2.02658 5.45623 1.9375 7.68326 1.9375C12.36 1.9375 14.5203 3.58551 14.5203 6.8147C14.5203 10.1553 11.6474 11.9814 7.23786 11.9814C7.08196 11.9814 6.83699 11.9592 6.61429 11.9369V15.6115L8.75224 16.1682V17.4377ZM7.26013 3.91956C7.01515 3.91956 6.81472 3.94183 6.61429 3.9641V9.86574C6.83699 9.99936 7.14878 10.0662 7.46056 10.0662C8.46273 10.0662 9.28673 9.17536 9.28673 6.90378C9.28673 4.40951 8.50727 3.91956 7.26013 3.91956Z" fill="#CBC0D1"/>
</svg>
