<svg width="36" height="33" viewBox="0 0 36 33" fill="none" xmlns="http://www.w3.org/2000/svg">
<path d="M30.0876 24.0109C30.0876 26.7494 28.2215 28.5848 26.3399 30.3805C24.397 32.2212 21.043 32.9395 18.0776 32.9395C14.8667 32.9395 11.5127 32.064 9.54932 29.9765C7.89275 28.2256 7.08765 26.9045 7.08765 24.368C7.08765 21.3375 8.19197 19.4094 10.5205 17.2252C12.4347 15.4295 12.2369 12.9394 18.0776 12.9395C23.9182 12.9395 30.0876 18.489 30.0876 24.0109Z" fill="#000000"/>
<path d="M25.2863 5.46087C25.5168 7.53433 24.0229 9.4021 21.9494 9.63266C19.876 9.86322 18.0082 8.36926 17.7776 6.2958C17.3981 2.88278 18.8513 0.648056 20.9247 0.417496C22.9982 0.186937 25.0557 3.38741 25.2863 5.46087Z" fill="#000000"/>
<path d="M8.08765 6.27279C8.08765 8.29783 9.65465 9.93945 11.5876 9.93945C13.5206 9.93945 15.0876 8.29783 15.0876 6.27279C15.0876 2.93945 13.5206 0.939453 11.5876 0.939453C9.65465 0.939453 8.08765 4.24774 8.08765 6.27279Z" fill="#000000"/>
<path d="M34.7725 11.6567C34.9465 13.7356 33.4022 15.562 31.3232 15.736C29.2443 15.91 27.4179 14.3657 27.2439 12.2868C26.9575 8.86466 28.471 6.67035 30.55 6.49636C32.6289 6.32237 34.5985 9.57771 34.7725 11.6567Z" fill="#000000"/>
<path d="M0.315151 15.0908C0.14116 17.1697 1.68545 18.9961 3.76442 19.1701C5.84339 19.3441 7.66977 17.7998 7.84376 15.7208C8.13016 12.2987 6.61667 10.1044 4.5377 9.93044C2.45873 9.75645 0.489143 13.0118 0.315151 15.0908Z" fill="#000000"/>
</svg>
